<svg width="18" height="18" viewBox="0 0 18 18" fill="none" xmlns="http://www.w3.org/2000/svg">
<path d="M5 7C5 6.44772 5.44772 6 6 6C6.55228 6 7 6.44772 7 7V9C7 9.55228 6.55228 10 6 10C5.44772 10 5 9.55228 5 9V7Z" fill="#474D57"/>
<path fill-rule="evenodd" clip-rule="evenodd" d="M5.33104 0.256706C5.71134 -0.0855686 6.28866 -0.0855686 6.66896 0.256706L11.669 4.75671C11.8797 4.94635 12 5.21651 12 5.5V7.54623L12.3415 7.24742C12.7185 6.91753 13.2815 6.91753 13.6585 7.24742L17.6585 10.7474C17.8755 10.9373 18 11.2116 18 11.5V16C18 17.1046 17.1046 18 16 18H1C0.447715 18 0 17.5523 0 17V5.5C0 5.21651 0.120321 4.94635 0.331035 4.75671L5.33104 0.256706ZM8 16V11.5C8 11.2116 8.12448 10.9373 8.3415 10.7474L10 9.29623V5.94536L6 2.34536L2 5.94536V16H8ZM12 13C12 12.4477 12.4477 12 13 12C13.5523 12 14 12.4477 14 13V16H16V11.9538L13 9.32877L10 11.9538V16H12V13Z" fill="#474D57"/>
</svg>
