<svg width="18" height="19" viewBox="0 0 18 19" fill="none" xmlns="http://www.w3.org/2000/svg">
<path fill-rule="evenodd" clip-rule="evenodd" d="M9.98523 18.9998H2C0.895431 18.9998 0 18.1044 0 16.9998V5.67409C0 4.81323 0.55086 4.04895 1.36754 3.77672L9.36754 1.10003C10.6626 0.668343 12 1.64231 12 3.00742V7.55855L16.6325 9.1027C17.4491 9.37493 18 10.1392 18 11.0001V16.9999C18 18.1045 17.1046 18.9999 16 18.9999H10C9.99507 18.9999 9.99015 18.9999 9.98523 18.9998ZM2 5.67409L10 3V6.99854C8.9359 6.99687 8 7.8581 8 9.00007V16.9998H2V15H5V13H2V11H5V9H2L2 5.67409ZM16 13H13V15H16V16.9999H10V9.00007L16 11.0001V13Z" fill="#474D57"/>
</svg>
