<svg width="22" height="20" viewBox="0 0 22 20" fill="none" xmlns="http://www.w3.org/2000/svg">
<path fill-rule="evenodd" clip-rule="evenodd" d="M20.5675 7.08165C19.3187 2.98244 15.5076 0 11 0C6.49238 0 2.68134 2.98244 1.43254 7.08165C0.604363 7.32624 0 8.09254 0 9C0 10.1046 0.89543 11 2 11C2.08623 11 3.24231 11 3.24231 11L3.78882 15.3721C3.94375 16.6115 4.84055 17.5955 6 17.9012V19C6 19.5523 6.44772 20 7 20C7.55228 20 8 19.5523 8 19V18H14V19C14 19.5523 14.4477 20 15 20C15.5523 20 16 19.5523 16 19V17.9012C17.1595 17.5956 18.0564 16.6116 18.2114 15.3721L18.7579 11C19.1719 11 19.586 11 20 11C21.1046 11 22 10.1046 22 9C22 8.09254 21.3956 7.32624 20.5675 7.08165ZM11 2C9.82641 2 8.71185 2.25271 7.70776 2.70667C8.09497 3.4059 8.48263 4.2854 8.82376 5.30879C9.33816 6.85198 9.76716 8.78173 9.92993 11.0365C10.2715 11.0128 10.6281 11 10.9998 11C11.3818 11 11.7477 11.0135 12.0979 11.0385C12.2787 9.16429 12.6907 7.33171 13.1696 5.7801C13.4932 4.73133 13.8527 3.79388 14.2033 3.04275C14.252 2.93827 14.3016 2.83513 14.352 2.73398C13.3324 2.26285 12.1969 2 11 2ZM14.0798 11.3248C14.9969 11.5299 15.7556 11.8093 16.3631 12.0952C16.4418 12.1322 16.518 12.1694 16.5915 12.2064L17.0013 8.92842C17.1 8.04645 17.6344 7.30977 18.4491 7.07683C17.943 5.78802 17.112 4.66241 16.057 3.80077C16.0434 3.82943 16.0296 3.85868 16.0156 3.88853C15.7099 4.54365 15.3819 5.3937 15.0806 6.36993C14.6233 7.85142 14.2396 9.58439 14.0798 11.3248ZM16.323 14.3545C16.1198 14.2215 15.8503 14.0642 15.5115 13.9048C14.5762 13.4647 13.0961 13 10.9998 13C8.90346 13 7.42337 13.4647 6.48808 13.9048C6.14961 14.0641 5.88024 14.2212 5.67713 14.3541L5.77338 15.124C5.83593 15.6245 6.26133 16 6.76565 16H15.2345C15.7388 16 16.1642 15.6245 16.2268 15.124L16.323 14.3545ZM5.40864 12.2061C5.482 12.1692 5.55794 12.1321 5.63649 12.0952C6.24945 11.8067 7.01642 11.5248 7.94474 11.3192C7.80203 9.17357 7.39941 7.36029 6.92639 5.94124C6.62068 5.02411 6.2936 4.2948 6.00098 3.75385C4.91843 4.62137 4.06627 5.7645 3.55088 7.07683C4.36499 7.30959 4.9 8.04532 4.99867 8.9264L5.40864 12.2061Z" fill="#474D57"/>
</svg>
