<svg width="20" height="19" viewBox="0 0 20 19" fill="none" xmlns="http://www.w3.org/2000/svg">
<path fill-rule="evenodd" clip-rule="evenodd" d="M1 0C0.447715 0 0 0.447715 0 1C0 1.55228 0.447716 2 1 2H2V16.3011C2 17.6553 3.50619 18.4659 4.63643 17.72L7.44916 15.8636C7.78328 15.643 8.21672 15.643 8.55084 15.8636L11.3636 17.72C12.4938 18.4659 14 17.6553 14 16.3011V12.82L15.3636 13.72C16.4938 14.4659 18 13.6553 18 12.3011V2H19C19.5523 2 20 1.55228 20 1C20 0.447715 19.5523 0 19 0H1ZM16 2H14V10.4237L16 11.7437V2ZM12 2H4V15.7437L6.34747 14.1943C7.34984 13.5328 8.65016 13.5328 9.65252 14.1943L12 15.7437V2Z" fill="#474D57"/>
</svg>
