<?xml version="1.0" encoding="utf-8"?>
<!-- Generator: Adobe Illustrator 21.0.0, SVG Export Plug-In . SVG Version: 6.00 Build 0)  -->
<svg version="1.1" id="Layer_1" xmlns="http://www.w3.org/2000/svg" xmlns:xlink="http://www.w3.org/1999/xlink" x="0px" y="0px"
	 viewBox="0 0 100 42" style="enable-background:new 0 0 100 42;" xml:space="preserve">
<style type="text/css">
	.st0{fill:none;}
	.st1{fill:#FFFFFF;}
	.st2{fill:#3FA148;}
</style>
<g>
	<rect class="st0" width="100" height="42"/>
	<path class="st1" d="M22.7,10.3h1.8V9.8c-0.6-1.1-1.3-1.6-1.8-1.7V10.3z"/>
	<path class="st1" d="M22.2,10.3V8.2c-1.1,0.2-1.9,1.7-1.9,1.7v0.5H22.2z"/>
	<path class="st2" d="M22.2,10.8h-1.9V13h1.9V10.8z"/>
	<path class="st1" d="M22.7,13h1.8v-2.2h-1.8V13z"/>
	<path class="st1" d="M22.2,13h-1.9v-2.2h1.9V13z"/>
	<path class="st1" d="M61.8,15.2c0,0.3-0.1,0.5-0.3,0.7c-0.2,0.2-0.4,0.3-0.7,0.3c-0.3,0-0.5-0.1-0.7-0.3c-0.2-0.2-0.3-0.4-0.3-0.7
		c0-0.3,0.1-0.5,0.3-0.7c0.2-0.2,0.4-0.3,0.7-0.3c0.3,0,0.5,0.1,0.7,0.3C61.7,14.7,61.8,14.9,61.8,15.2z"/>
	<path class="st1" d="M67.7,14.7c0,0.4-0.2,0.8-0.5,1.1c-0.4,0.3-1,0.4-1.7,0.4c-0.8,0-1.4-0.2-1.8-0.5c-0.4-0.4-0.6-1-0.6-1.9v-3.1
		c0-0.9,0.2-1.5,0.6-1.9c0.4-0.3,1-0.5,1.8-0.5c0.7,0,1.3,0.2,1.7,0.5c0.4,0.3,0.5,0.6,0.5,1v1.1h-1.6V9.8c0-0.1-0.1-0.3-0.2-0.4
		c-0.1-0.1-0.3-0.2-0.5-0.2c-0.4,0-0.7,0.2-0.7,0.5v5c0,0.4,0.2,0.5,0.7,0.5c0.2,0,0.4-0.1,0.5-0.2c0.1-0.1,0.2-0.2,0.2-0.4v-1.1
		h1.6V14.7z"/>
	<path class="st1" d="M82.4,16.2h-1.6V9.9c0-0.3-0.1-0.5-0.4-0.5h-1v6.8h-1.6V9.9c0-0.3-0.1-0.5-0.4-0.5h-0.9v6.8h-1.7V8.4h1.7v0.1
		c0.2-0.2,0.6-0.2,1-0.2c0.9,0,1.4,0.1,1.7,0.4l0.2-0.2c0.2-0.2,0.6-0.2,1-0.2c0.6,0,1,0.1,1.3,0.2c0.5,0.2,0.7,0.5,0.7,1.1V16.2z"
		/>
	<path class="st1" d="M85.7,15.2c0,0.3-0.1,0.5-0.3,0.7c-0.2,0.2-0.4,0.3-0.7,0.3c-0.3,0-0.5-0.1-0.7-0.3c-0.2-0.2-0.3-0.4-0.3-0.7
		c0-0.3,0.1-0.5,0.3-0.7c0.2-0.2,0.4-0.3,0.7-0.3c0.3,0,0.5,0.1,0.7,0.3C85.6,14.7,85.7,14.9,85.7,15.2z"/>
	<path class="st1" d="M88.9,13.8l1.8-5.4h1.6l-2.6,7.8H88l-2.6-7.8H87L88.9,13.8z"/>
	<path class="st1" d="M97.9,16.2h-1.6V9.9c0-0.3-0.1-0.5-0.4-0.5h-1v6.8h-1.7V8.4H95v0.1c0.2-0.2,0.6-0.2,1-0.2c0.6,0,1,0.1,1.3,0.2
		c0.4,0.2,0.7,0.5,0.7,1.1V16.2z"/>
	<path class="st1" d="M71.6,14.8V9.7c0-0.3-0.2-0.4-0.7-0.4c-0.5,0-0.7,0.1-0.7,0.4v5.1c0,0.3,0.2,0.4,0.7,0.4
		C71.3,15.3,71.6,15.1,71.6,14.8z M73.3,14.7c0,0.5-0.2,0.9-0.5,1.2c-0.4,0.3-1,0.4-1.9,0.4c-1.7,0-2.6-0.5-2.6-1.6V9.9
		c0-1.1,0.9-1.6,2.6-1.6c0.9,0,1.6,0.1,1.9,0.4c0.3,0.2,0.5,0.6,0.5,1.2V14.7z"/>
	<path class="st1" d="M97.3,39.1C97.3,39.1,97.3,39.1,97.3,39.1c-0.1-0.1-0.2-0.2-0.3-0.3c-1-0.5-5.1-1.2-5.1-1.2
		c-0.2,0-0.4,0-0.6,0c-79.3-5.8-84,1.3-84,1.3c-4.4,2.9,2.2,1.7,2.2,1.7c48.5-6.9,86.2-0.8,86.2-0.8C97.4,39.8,97.7,39.5,97.3,39.1z
		"/>
	<path class="st1" d="M62.4,32.1c0.7,0.5,1.8,0.8,3.2,0.8c2.5,0,3.8-0.8,3.8-2.5v-4.2h-3.8v1.7h1.5v2.5c0,0.3-0.1,0.5-0.4,0.8
		c-0.3,0.3-0.6,0.4-1,0.4c-0.4,0-0.8-0.1-1.1-0.3c-0.3-0.2-0.5-0.5-0.5-0.8V22c0-0.6,0.5-0.9,1.5-0.9c0.9,0,1.4,0.3,1.4,0.9v2.2h2.2
		v-2.2c0-0.9-0.4-1.6-1.3-1.9c-0.6-0.2-1.4-0.3-2.5-0.3c-1.2,0-2.2,0.2-2.9,0.7c-0.7,0.5-1.1,1.1-1.1,1.9v8.1
		C61.5,31,61.8,31.6,62.4,32.1z"/>
	<path class="st1" d="M37,30.7c0,0.5-0.4,0.7-1.1,0.7c-0.8,0-1.2-0.2-1.2-0.7v-8.4c0-0.4,0.4-0.7,1.3-0.7c0.7,0,1.1,0.2,1.1,0.6
		V30.7z M8.4,22.2c0-0.4,0.4-0.6,1.1-0.6c0.8,0,1.3,0.2,1.3,0.7v8.5c0,0.5-0.4,0.7-1.2,0.7c-0.8,0-1.2-0.2-1.2-0.7V22.2z M6.3,32.5
		c0.6,0.4,1.6,0.6,3.1,0.6c2.9,0,4.3-0.9,4.3-2.6v-8.3c0-1.5-1-2.3-2.9-2.3c-0.2,0-0.6,0-1,0c-0.4,0-0.7,0-0.8,0
		c-0.3,0-0.6,0.1-0.9,0.4v-5.8L22.4,3l14.8,11.5V16l0,1.8v2.5c-0.3-0.2-0.6-0.3-0.9-0.3c-0.1,0-0.4,0-0.8,0c-0.4,0-0.7,0-1,0
		c-2,0-3,0.8-3,2.3v8.3c0,1.8,1.4,2.6,4.3,2.6c1.5,0,2.5-0.2,3.1-0.6c0.5-0.4,0.8-1,0.8-1.8V15.8h2.3L22.8,0h-0.7L3,15.8h2.4h0v0
		v14.8C5.5,31.5,5.7,32.1,6.3,32.5"/>
	<path class="st1" d="M20.6,31h-1.3c-0.5,0-0.8-0.2-0.8-0.6v-2.8c0-0.5,0.2-0.9,0.7-1.1l1.4-0.6V31z M20.2,24.1
		c-1.1,0.6-2.2,1.1-3.2,1.5c-0.6,0.3-1,0.6-1.2,1.1c-0.2,0.4-0.3,1.2-0.3,2.4c0,1.6,0.3,2.7,0.9,3.2c0.3,0.3,0.9,0.5,1.6,0.5h5.5
		v-9.2c0-1.5-0.3-2.6-1-3.2c-0.6-0.6-1.6-0.8-3-0.8c-1.2,0-2.2,0.3-2.9,0.8c-0.6,0.4-0.8,1-0.8,1.7v1.8h2.6v-1.8
		c0-0.2,0.1-0.4,0.3-0.6c0.2-0.2,0.5-0.3,0.8-0.3c0.8,0,1.1,0.3,1.1,0.9v1.5C20.6,23.9,20.5,24,20.2,24.1"/>
	<path class="st1" d="M29.2,32.8V21.6h1V20h-1v-3.7l-2.9,1.6V20h-1.2v1.6h1.2v11.2H29.2z"/>
	<path class="st1" d="M44.8,22.1c0-0.5,0.4-0.7,1.2-0.7c0.8,0,1.2,0.2,1.2,0.7v8.6c0,0.5-0.4,0.7-1.2,0.7c-0.8,0-1.2-0.2-1.2-0.7
		V22.1z M41.8,30.4c0,1.8,1.4,2.6,4.3,2.6c1.5,0,2.6-0.2,3.3-0.7c0.6-0.4,0.8-1,0.8-1.9v-8c0-0.9-0.3-1.6-0.8-2
		c-0.6-0.5-1.7-0.7-3.3-0.7c-2.9,0-4.3,0.9-4.3,2.7V30.4z"/>
	<path class="st1" d="M54.9,21.5h1.6c0.5,0,0.7,0.3,0.7,0.9v10.4h2.7v-11c0-0.9-0.4-1.5-1.1-1.7c-0.4-0.2-1.1-0.3-2.1-0.3
		c-0.8,0-1.3,0.1-1.7,0.4V20H52v12.8h2.8V21.5z"/>
	<path class="st1" d="M71.1,25c0.3,1.4,1.5,2.1,3.7,2.1H75c0.6,0,0.9,0.3,0.9,0.9v2.6c0,0.6-0.4,0.9-1.1,0.9c-0.3,0-0.6-0.1-0.8-0.3
		c-0.2-0.2-0.3-0.4-0.3-0.6v-1.8h-2.6v1.8c0,0.7,0.3,1.3,0.8,1.8c0.7,0.5,1.6,0.7,2.9,0.7c1.4,0,2.4-0.3,3-0.8c0.7-0.6,1-1.7,1-3.2
		v-1.2c0-0.7-0.3-1.2-0.9-1.7c-0.7-0.5-1.6-0.7-2.8-0.7h-0.3c-0.6,0-0.9-0.3-0.9-0.9v-2.2c0-0.6,0.4-0.9,1.1-0.9
		c0.3,0,0.6,0.1,0.8,0.3c0.2,0.2,0.3,0.4,0.3,0.6v1.8h2.6v-1.8c0-0.7-0.3-1.3-0.8-1.7c-0.7-0.5-1.6-0.8-2.9-0.8
		c-1.3,0-2.2,0.2-2.8,0.7c-0.7,0.5-1.1,1.4-1.2,2.7C71.1,23.4,71.1,24,71.1,25L71.1,25z"/>
	<path class="st1" d="M85.5,31h-1.3c-0.5,0-0.8-0.2-0.8-0.6v-2.8c0-0.5,0.2-0.9,0.7-1.1l1.4-0.6V31z M85.1,24.1
		c-1.1,0.6-2.2,1.1-3.2,1.5c-0.6,0.3-1,0.6-1.2,1.1c-0.2,0.4-0.3,1.2-0.3,2.4c0,1.6,0.3,2.7,0.9,3.2c0.3,0.3,0.9,0.5,1.6,0.5h5.5
		v-9.2c0-1.5-0.3-2.6-1-3.2c-0.6-0.6-1.6-0.8-3-0.8c-1.2,0-2.2,0.3-2.9,0.8c-0.6,0.4-0.8,1-0.8,1.7v1.8h2.6v-1.8
		c0-0.2,0.1-0.4,0.3-0.6c0.2-0.2,0.5-0.3,0.8-0.3c0.8,0,1.1,0.3,1.1,0.9v1.5C85.5,23.9,85.4,24,85.1,24.1"/>
	<path class="st1" d="M96.8,20.1c-0.4-0.2-1.1-0.3-2.1-0.3c-0.8,0-1.3,0.1-1.7,0.4V20h-2.8v12.8H93V21.5h1.6c0.5,0,0.7,0.3,0.7,0.9
		v10.4h2.7v-11C97.9,20.9,97.5,20.3,96.8,20.1z"/>
</g>
</svg>
