<svg width="18" height="19" viewBox="0 0 18 19" fill="none" xmlns="http://www.w3.org/2000/svg">
<path fill-rule="evenodd" clip-rule="evenodd" d="M17 19C17.5523 19 18 18.5523 18 18V12.5C18 12.2116 17.8755 11.9373 17.6585 11.7474L13.6585 8.24742C13.2815 7.91753 12.7185 7.91753 12.3415 8.24742L12 8.54623V3.00742C12 1.64231 10.6626 0.668343 9.36754 1.10003L1.36754 3.77672C0.55086 4.04895 0 4.81323 0 5.67409V16.9998C0 18.1044 0.895431 18.9998 2 18.9998L17 19ZM8 16.9998V12.5C8 12.2116 8.12448 11.9373 8.3415 11.7474L10 10.2962V3L2 5.67409L2 9H5V11H2V13H5V15H2V16.9998H8ZM10 17V12.9538L13 10.3288L16 12.9538V17H14V14C14 13.4477 13.5523 13 13 13C12.4477 13 12 13.4477 12 14V17H10Z" fill="#474D57"/>
</svg>
