<svg width="18" height="20" viewBox="0 0 18 20" fill="none" xmlns="http://www.w3.org/2000/svg">
<path d="M11.5 6.5C11.5 7.32843 10.8284 8 10 8C9.17157 8 8.5 7.32843 8.5 6.5C8.5 5.67157 9.17157 5 10 5C10.8284 5 11.5 5.67157 11.5 6.5Z" fill="#474D57"/>
<path d="M14 11.0833C14 12.3333 12.2222 14 10 14C7.77778 14 6 12.3333 6 11.0833C6 9.41667 8.23531 9 10 9C11.7647 9 14 9.41667 14 11.0833Z" fill="#474D57"/>
<path fill-rule="evenodd" clip-rule="evenodd" d="M2 11V14H1C0.447715 14 0 14.4477 0 15C0 15.5523 0.447715 16 1 16H2V18C2 19.1046 2.89543 20 4 20H16C17.1046 20 18 19.1046 18 18V2C18 0.895431 17.1046 0 16 0H4C2.89543 0 2 0.895431 2 2V4H1C0.447715 4 0 4.44772 0 5C0 5.55228 0.447715 6 1 6H2V9H1C0.447715 9 0 9.44772 0 10C0 10.5523 0.447715 11 1 11H2ZM16 2H4V18H16V2Z" fill="#474D57"/>
</svg>
