<svg width="20" height="20" viewBox="0 0 20 20" fill="none" xmlns="http://www.w3.org/2000/svg">
<path d="M8.5 16C9.32843 16 10 15.3284 10 14.5C10 13.6716 9.32843 13 8.5 13C7.67157 13 7 13.6716 7 14.5C7 15.3284 7.67157 16 8.5 16Z" fill="#474D57"/>
<path d="M13 5.5C13 6.32843 12.3284 7 11.5 7C10.6716 7 10 6.32843 10 5.5C10 4.67157 10.6716 4 11.5 4C12.3284 4 13 4.67157 13 5.5Z" fill="#474D57"/>
<path fill-rule="evenodd" clip-rule="evenodd" d="M0 10C0 4.47715 4.47715 0 10 0C15.5228 0 20 4.47715 20 10C20 15.5228 15.5228 20 10 20C4.47715 20 0 15.5228 0 10ZM9.71408 17.995C5.42823 17.8444 2 14.3226 2 10C2 6.74765 3.94079 3.9486 6.72742 2.69781C5.32173 5.20323 5.95335 8.58738 8.62227 10.3031L10.2962 11.3792C12.5679 12.8396 12.5679 16.1604 10.2962 17.6208L9.71408 17.995ZM13.2726 17.3022C16.0592 16.0514 18 13.2524 18 10C18 5.67742 14.5718 2.15555 10.2859 2.00501L9.70379 2.37922C7.43207 3.83961 7.43207 7.16037 9.70379 8.62077L11.3777 9.69686C14.0467 11.4126 14.6783 14.7968 13.2726 17.3022Z" fill="#474D57"/>
</svg>
