<svg width="40" height="40" viewBox="0 0 40 40" fill="none" xmlns="http://www.w3.org/2000/svg">
<path d="M11 12C10.4477 12 10 12.4477 10 13C10 13.5523 10.4477 14 11 14H29C29.5523 14 30 13.5523 30 13C30 12.4477 29.5523 12 29 12H11Z" fill="white"/>
<path d="M10 20C10 19.4477 10.4477 19 11 19H29C29.5523 19 30 19.4477 30 20C30 20.5523 29.5523 21 29 21H11C10.4477 21 10 20.5523 10 20Z" fill="white"/>
<path d="M10 27C10 26.4477 10.4477 26 11 26H29C29.5523 26 30 26.4477 30 27C30 27.5523 29.5523 28 29 28H11C10.4477 28 10 27.5523 10 27Z" fill="white"/>
</svg>
